<svg width="182" height="56" viewBox="0 0 182 56" fill="none" xmlns="http://www.w3.org/2000/svg">
<mask id="path-1-outside-1_3_239" maskUnits="userSpaceOnUse" x="-0.0411377" y="-0.5" width="182" height="57" fill="black">
<rect fill="white" x="-0.0411377" y="-0.5" width="182" height="57"/>
<path d="M1.95886 28.5C1.95886 15.2452 12.704 4.5 25.9589 4.5L153.959 4.5C167.214 4.5 177.959 15.2452 177.959 28.5V28.5C177.959 41.7548 167.214 52.5 153.959 52.5H25.9589C12.704 52.5 1.95886 41.7548 1.95886 28.5V28.5Z"/>
</mask>
<path d="M1.95886 28.5C1.95886 15.2452 12.704 4.5 25.9589 4.5L153.959 4.5C167.214 4.5 177.959 15.2452 177.959 28.5V28.5C177.959 41.7548 167.214 52.5 153.959 52.5H25.9589C12.704 52.5 1.95886 41.7548 1.95886 28.5V28.5Z" fill="#FF9EB5"/>
<path d="M25.9589 0C25.9589 3 25.9589 6 25.9589 9C32.7389 8.95312 39.5189 8.90625 46.299 8.85938C82.1856 8.61127 118.072 8.36316 153.959 8.11505C164.806 7.75243 174.782 17.4994 174.604 28.5C174.604 28.5 174.604 28.5 174.604 28.5C174.97 39.4865 165.099 49.587 153.959 49.4062C111.292 49.7012 68.6255 49.9962 25.9589 50.2912C14.3609 50.6702 3.71285 40.2512 3.90701 28.5C3.90701 28.5 3.90701 28.5 3.90701 28.5C3.84609 23.1679 5.80873 17.8558 9.33788 13.8253C13.4391 9.07072 19.635 6.19736 25.9589 6.1875C25.9589 5.0625 25.9589 3.9375 25.9589 2.8125C18.6926 2.72 11.4416 5.93974 6.59802 11.4043C2.42693 16.0312 0.0242121 22.24 0.0107125 28.5C0.0107125 28.5 0.0107125 28.5 0.0107125 28.5C-0.416807 42.3166 11.989 54.9515 25.9589 54.7088C68.6255 55.0038 111.292 55.2988 153.959 55.5938C168.387 56.0346 181.569 43.0813 181.313 28.5C181.313 28.5 181.313 28.5 181.313 28.5C181.757 13.9329 168.679 0.625887 153.959 0.88495C118.072 0.636842 82.1856 0.388733 46.299 0.140625C39.5189 0.09375 32.7389 0.046875 25.9589 0ZM25.9589 9V0V2.8125V6.1875V9Z" fill="black" mask="url(#path-1-outside-1_3_239)"/>
<path d="M20.8634 39.5V16.588H26.4314L32.5114 32.684H32.7674L38.8474 16.588H44.4474V39.5H40.1594V28.204L40.4154 24.396H40.1594L34.3354 39.5H30.9754L25.1194 24.396H24.8634L25.1194 28.204V39.5H20.8634ZM56.8766 40.012C55.1699 40.012 53.6553 39.6387 52.3326 38.892C51.0313 38.124 50.0073 37.0893 49.2606 35.788C48.5353 34.4653 48.1726 32.9827 48.1726 31.34C48.1726 29.6973 48.5353 28.2253 49.2606 26.924C50.0073 25.6013 51.0313 24.5667 52.3326 23.82C53.6553 23.052 55.1699 22.668 56.8766 22.668C58.5833 22.668 60.0873 23.052 61.3886 23.82C62.6899 24.588 63.7033 25.6227 64.4286 26.924C65.1753 28.2253 65.5486 29.6973 65.5486 31.34C65.5486 32.9827 65.1753 34.4653 64.4286 35.788C63.7033 37.0893 62.6899 38.124 61.3886 38.892C60.0873 39.6387 58.5833 40.012 56.8766 40.012ZM56.8766 36.108C57.6873 36.108 58.4233 35.9267 59.0846 35.564C59.7673 35.18 60.3113 34.636 60.7166 33.932C61.1433 33.2067 61.3566 32.3427 61.3566 31.34C61.3566 30.3373 61.1433 29.484 60.7166 28.78C60.3113 28.076 59.7673 27.532 59.0846 27.148C58.4233 26.764 57.6873 26.572 56.8766 26.572C56.0873 26.572 55.3406 26.764 54.6366 27.148C53.9539 27.532 53.3993 28.076 52.9726 28.78C52.5673 29.484 52.3646 30.3373 52.3646 31.34C52.3646 32.3427 52.5673 33.2067 52.9726 33.932C53.3993 34.636 53.9539 35.18 54.6366 35.564C55.3406 35.9267 56.0873 36.108 56.8766 36.108ZM68.6936 39.5V23.18H72.6296V25.228H72.8856C73.3763 24.4387 74.0696 23.82 74.9656 23.372C75.8616 22.9027 76.8323 22.668 77.8776 22.668C79.8829 22.668 81.3869 23.276 82.3896 24.492C83.3923 25.708 83.8936 27.3293 83.8936 29.356V39.5H79.7016V29.868C79.7016 28.8013 79.4243 27.9907 78.8696 27.436C78.3363 26.86 77.6003 26.572 76.6616 26.572C75.8936 26.572 75.2216 26.7853 74.6456 27.212C74.0909 27.6173 73.6536 28.172 73.3336 28.876C73.0349 29.5587 72.8856 30.3267 72.8856 31.18V39.5H68.6936ZM93.9954 40.012C92.5874 40.012 91.382 39.8093 90.3794 39.404C89.398 38.9987 88.598 38.4653 87.9794 37.804C87.3607 37.1427 86.902 36.4173 86.6034 35.628L90.3474 33.996C90.71 34.764 91.2007 35.3507 91.8194 35.756C92.438 36.14 93.1634 36.332 93.9954 36.332C94.678 36.332 95.2967 36.2253 95.8514 36.012C96.406 35.7773 96.6834 35.3613 96.6834 34.764C96.6834 34.3373 96.534 34.0067 96.2354 33.772C95.958 33.516 95.606 33.324 95.1794 33.196C94.7527 33.0467 94.3154 32.9293 93.8674 32.844L91.9474 32.428C91.158 32.2573 90.4114 31.9587 89.7074 31.532C89.0034 31.084 88.4274 30.5293 87.9794 29.868C87.5527 29.1853 87.3394 28.4067 87.3394 27.532C87.3394 26.5507 87.6167 25.6973 88.1714 24.972C88.7474 24.2467 89.5154 23.6813 90.4754 23.276C91.4567 22.8707 92.534 22.668 93.7074 22.668C94.7954 22.668 95.7767 22.796 96.6514 23.052C97.526 23.308 98.2834 23.7027 98.9234 24.236C99.5634 24.748 100.075 25.4093 100.459 26.22L96.8754 27.788C96.534 27.148 96.086 26.7 95.5314 26.444C94.998 26.188 94.422 26.06 93.8034 26.06C93.078 26.06 92.502 26.1987 92.0754 26.476C91.6487 26.7533 91.4354 27.084 91.4354 27.468C91.4354 27.8733 91.6487 28.2253 92.0754 28.524C92.502 28.8227 93.014 29.0467 93.6114 29.196L96.0114 29.772C97.6327 30.156 98.8487 30.7747 99.6594 31.628C100.491 32.4813 100.907 33.5053 100.907 34.7C100.907 35.7667 100.598 36.7053 99.9794 37.516C99.3607 38.3053 98.5287 38.924 97.4834 39.372C96.438 39.7987 95.2754 40.012 93.9954 40.012ZM102.353 26.764V23.18H105.361V26.764H102.353ZM110.609 39.756C108.923 39.756 107.601 39.276 106.641 38.316C105.681 37.3347 105.201 35.9907 105.201 34.284V18.572H109.393V33.516C109.393 34.3053 109.553 34.892 109.873 35.276C110.193 35.6387 110.715 35.82 111.441 35.82C111.782 35.82 112.102 35.7773 112.401 35.692C112.699 35.5853 113.073 35.3933 113.521 35.116V39.212C113.051 39.3827 112.571 39.5107 112.081 39.596C111.611 39.7027 111.121 39.756 110.609 39.756ZM109.233 26.764V23.18H113.393V26.764H109.233ZM123.685 40.012C122.043 40.012 120.571 39.6387 119.269 38.892C117.989 38.1453 116.976 37.1213 116.229 35.82C115.504 34.5187 115.141 33.036 115.141 31.372C115.141 29.8147 115.504 28.3747 116.229 27.052C116.955 25.7293 117.947 24.6733 119.205 23.884C120.464 23.0733 121.904 22.668 123.525 22.668C125.275 22.668 126.747 23.0413 127.941 23.788C129.136 24.5347 130.043 25.5373 130.661 26.796C131.28 28.0333 131.589 29.4093 131.589 30.924C131.589 31.2653 131.579 31.564 131.557 31.82C131.536 32.0547 131.515 32.2253 131.493 32.332H117.477V29.356H127.557C127.536 28.9933 127.429 28.62 127.237 28.236C127.045 27.852 126.779 27.5 126.437 27.18C126.096 26.86 125.68 26.604 125.189 26.412C124.72 26.1987 124.176 26.092 123.557 26.092C122.747 26.092 122 26.3053 121.317 26.732C120.656 27.1587 120.133 27.756 119.749 28.524C119.365 29.2707 119.173 30.1667 119.173 31.212C119.173 32.3 119.376 33.228 119.781 33.996C120.187 34.7427 120.731 35.3187 121.413 35.724C122.117 36.108 122.896 36.3 123.749 36.3C124.752 36.3 125.595 36.0867 126.277 35.66C126.96 35.212 127.493 34.6573 127.877 33.996L131.269 35.66C130.501 37.004 129.499 38.0707 128.261 38.86C127.024 39.628 125.499 40.012 123.685 40.012ZM134.725 39.5V23.18H138.661V25.356H138.917C139.194 24.844 139.557 24.396 140.005 24.012C140.474 23.6067 141.018 23.2867 141.637 23.052C142.256 22.8173 142.917 22.7 143.621 22.7C144.048 22.7 144.432 22.732 144.773 22.796C145.114 22.86 145.413 22.9453 145.669 23.052V27.244C145.221 27.0733 144.773 26.9347 144.325 26.828C143.898 26.7 143.44 26.636 142.949 26.636C142.117 26.636 141.392 26.8493 140.773 27.276C140.176 27.6813 139.717 28.2467 139.397 28.972C139.077 29.676 138.917 30.476 138.917 31.372V39.5H134.725ZM153.777 40.012C152.369 40.012 151.163 39.8093 150.161 39.404C149.179 38.9987 148.379 38.4653 147.761 37.804C147.142 37.1427 146.683 36.4173 146.385 35.628L150.129 33.996C150.491 34.764 150.982 35.3507 151.601 35.756C152.219 36.14 152.945 36.332 153.777 36.332C154.459 36.332 155.078 36.2253 155.633 36.012C156.187 35.7773 156.465 35.3613 156.465 34.764C156.465 34.3373 156.315 34.0067 156.017 33.772C155.739 33.516 155.387 33.324 154.961 33.196C154.534 33.0467 154.097 32.9293 153.649 32.844L151.729 32.428C150.939 32.2573 150.193 31.9587 149.489 31.532C148.785 31.084 148.209 30.5293 147.761 29.868C147.334 29.1853 147.121 28.4067 147.121 27.532C147.121 26.5507 147.398 25.6973 147.953 24.972C148.529 24.2467 149.297 23.6813 150.257 23.276C151.238 22.8707 152.315 22.668 153.489 22.668C154.577 22.668 155.558 22.796 156.433 23.052C157.307 23.308 158.065 23.7027 158.705 24.236C159.345 24.748 159.857 25.4093 160.241 26.22L156.657 27.788C156.315 27.148 155.867 26.7 155.313 26.444C154.779 26.188 154.203 26.06 153.585 26.06C152.859 26.06 152.283 26.1987 151.857 26.476C151.43 26.7533 151.217 27.084 151.217 27.468C151.217 27.8733 151.43 28.2253 151.857 28.524C152.283 28.8227 152.795 29.0467 153.393 29.196L155.793 29.772C157.414 30.156 158.63 30.7747 159.441 31.628C160.273 32.4813 160.689 33.5053 160.689 34.7C160.689 35.7667 160.379 36.7053 159.761 37.516C159.142 38.3053 158.31 38.924 157.265 39.372C156.219 39.7987 155.057 40.012 153.777 40.012Z" fill="black"/>
</svg>
